<mxfile host="65bd71144e">
    <diagram id="QZOvbPWlPO562GR_ZXTx" name="Page-1">
        <mxGraphModel dx="1555" dy="680" grid="1" gridSize="10" guides="1" tooltips="1" connect="1" arrows="1" fold="1" page="1" pageScale="1" pageWidth="827" pageHeight="1169" math="0" shadow="0">
            <root>
                <mxCell id="0"/>
                <mxCell id="1" parent="0"/>
                <mxCell id="24" style="edgeStyle=none;html=1;" edge="1" parent="1" source="2">
                    <mxGeometry relative="1" as="geometry">
                        <mxPoint x="280" y="100" as="targetPoint"/>
                        <Array as="points">
                            <mxPoint x="380" y="80"/>
                            <mxPoint x="280" y="80"/>
                        </Array>
                    </mxGeometry>
                </mxCell>
                <mxCell id="2" value="" style="ellipse;fillColor=#000000;strokeColor=none;" vertex="1" parent="1">
                    <mxGeometry x="360" width="40" height="40" as="geometry"/>
                </mxCell>
                <mxCell id="3" value="start the game" style="swimlane;childLayout=stackLayout;horizontal=1;startSize=30;horizontalStack=0;rounded=1;fontSize=14;fontStyle=0;strokeWidth=2;resizeParent=0;resizeLast=1;shadow=0;dashed=0;align=center;" vertex="1" parent="1">
                    <mxGeometry x="35.5" y="100" width="290" height="140" as="geometry"/>
                </mxCell>
                <mxCell id="4" value="Show the game screen&#10;Play music background&#10;Set lives and score&#10;Set timer&#10;Initialize all good elements (bees) in random pos&#10;Initialize all bad elements(impostors) in random pos&#10;" style="align=left;strokeColor=none;fillColor=none;spacingLeft=4;fontSize=12;verticalAlign=top;resizable=0;rotatable=0;part=1;rounded=0;" vertex="1" parent="3">
                    <mxGeometry y="30" width="290" height="110" as="geometry"/>
                </mxCell>
                <mxCell id="11" style="edgeStyle=none;html=1;entryX=0.5;entryY=0;entryDx=0;entryDy=0;" edge="1" parent="1" source="7" target="9">
                    <mxGeometry relative="1" as="geometry"/>
                </mxCell>
                <mxCell id="7" value="User clicks bee" style="text;html=1;resizable=0;autosize=1;align=center;verticalAlign=middle;points=[];fillColor=none;strokeColor=none;rounded=0;" vertex="1" parent="1">
                    <mxGeometry x="131" y="360" width="100" height="20" as="geometry"/>
                </mxCell>
                <mxCell id="8" style="edgeStyle=none;html=1;" edge="1" parent="1" source="4">
                    <mxGeometry relative="1" as="geometry">
                        <mxPoint x="181" y="360" as="targetPoint"/>
                        <Array as="points">
                            <mxPoint x="181" y="310"/>
                        </Array>
                    </mxGeometry>
                </mxCell>
                <mxCell id="9" value="hitBee" style="swimlane;childLayout=stackLayout;horizontal=1;startSize=30;horizontalStack=0;rounded=1;fontSize=14;fontStyle=0;strokeWidth=2;resizeParent=0;resizeLast=1;shadow=0;dashed=0;align=center;" vertex="1" parent="1">
                    <mxGeometry x="41" y="440" width="280" height="100" as="geometry"/>
                </mxCell>
                <mxCell id="10" value="Stop Bee movement&#10;Scale down Bee&#10;Play good sound&#10;" style="align=left;strokeColor=none;fillColor=none;spacingLeft=4;fontSize=12;verticalAlign=top;resizable=0;rotatable=0;part=1;rounded=0;" vertex="1" parent="9">
                    <mxGeometry y="30" width="280" height="70" as="geometry"/>
                </mxCell>
                <mxCell id="17" style="edgeStyle=none;html=1;" edge="1" parent="1" source="10">
                    <mxGeometry relative="1" as="geometry">
                        <mxPoint x="182" y="600" as="targetPoint"/>
                    </mxGeometry>
                </mxCell>
                <mxCell id="28" style="edgeStyle=none;html=1;" edge="1" parent="1" source="19">
                    <mxGeometry relative="1" as="geometry">
                        <mxPoint x="480" y="430" as="targetPoint"/>
                    </mxGeometry>
                </mxCell>
                <mxCell id="19" value="User clicks impostor&lt;br&gt;" style="text;html=1;resizable=0;autosize=1;align=center;verticalAlign=middle;points=[];fillColor=none;strokeColor=none;rounded=0;" vertex="1" parent="1">
                    <mxGeometry x="420" y="360" width="120" height="20" as="geometry"/>
                </mxCell>
                <mxCell id="21" style="edgeStyle=none;html=1;" edge="1" parent="1">
                    <mxGeometry relative="1" as="geometry">
                        <mxPoint x="181" y="280" as="sourcePoint"/>
                        <mxPoint x="480" y="360" as="targetPoint"/>
                        <Array as="points">
                            <mxPoint x="181" y="320"/>
                            <mxPoint x="480" y="320"/>
                        </Array>
                    </mxGeometry>
                </mxCell>
                <mxCell id="25" value="clickImpostor" style="swimlane;childLayout=stackLayout;horizontal=1;startSize=30;horizontalStack=0;rounded=1;fontSize=14;fontStyle=0;strokeWidth=2;resizeParent=0;resizeLast=1;shadow=0;dashed=0;align=center;" vertex="1" parent="1">
                    <mxGeometry x="380" y="440" width="266" height="100" as="geometry"/>
                </mxCell>
                <mxCell id="26" value="Stop impostor movement&#10;Animate the impostor(shake)&#10;Scale down the impostor&#10;Play bad sound&#10;" style="align=left;strokeColor=none;fillColor=none;spacingLeft=4;fontSize=12;verticalAlign=top;resizable=0;rotatable=0;part=1;rounded=0;" vertex="1" parent="25">
                    <mxGeometry y="30" width="266" height="70" as="geometry"/>
                </mxCell>
                <mxCell id="37" style="edgeStyle=none;html=1;" edge="1" parent="1" source="30">
                    <mxGeometry relative="1" as="geometry">
                        <mxPoint x="181" y="660" as="targetPoint"/>
                    </mxGeometry>
                </mxCell>
                <mxCell id="30" value="scaleBee animation is over" style="text;html=1;resizable=0;autosize=1;align=center;verticalAlign=middle;points=[];fillColor=none;strokeColor=none;rounded=0;" vertex="1" parent="1">
                    <mxGeometry x="101.5" y="600" width="160" height="20" as="geometry"/>
                </mxCell>
                <mxCell id="44" style="edgeStyle=none;html=1;" edge="1" parent="1" source="31">
                    <mxGeometry relative="1" as="geometry">
                        <mxPoint x="513" y="660" as="targetPoint"/>
                    </mxGeometry>
                </mxCell>
                <mxCell id="31" value="scaleImpostor animation is over" style="text;html=1;resizable=0;autosize=1;align=center;verticalAlign=middle;points=[];fillColor=none;strokeColor=none;rounded=0;" vertex="1" parent="1">
                    <mxGeometry x="423" y="610" width="180" height="20" as="geometry"/>
                </mxCell>
                <mxCell id="32" style="edgeStyle=none;html=1;" edge="1" parent="1" source="26">
                    <mxGeometry relative="1" as="geometry">
                        <mxPoint x="513" y="600" as="targetPoint"/>
                    </mxGeometry>
                </mxCell>
                <mxCell id="33" value="impostorDisappeared" style="swimlane;childLayout=stackLayout;horizontal=1;startSize=30;horizontalStack=0;rounded=1;fontSize=14;fontStyle=0;strokeWidth=2;resizeParent=0;resizeLast=1;shadow=0;dashed=0;align=center;" vertex="1" parent="1">
                    <mxGeometry x="380" y="670" width="270" height="130" as="geometry"/>
                </mxCell>
                <mxCell id="34" value="Lose 1 life&#10;Lose 15 points&#10;Update lives board&#10;Updates scoreboard&#10;Give impostor new random position&#10;Restart animation" style="align=left;strokeColor=none;fillColor=none;spacingLeft=4;fontSize=12;verticalAlign=top;resizable=0;rotatable=0;part=1;rounded=0;" vertex="1" parent="33">
                    <mxGeometry y="30" width="270" height="100" as="geometry"/>
                </mxCell>
                <mxCell id="35" value="beeDisappeared" style="swimlane;childLayout=stackLayout;horizontal=1;startSize=30;horizontalStack=0;rounded=1;fontSize=14;fontStyle=0;strokeWidth=2;resizeParent=0;resizeLast=1;shadow=0;dashed=0;align=center;" vertex="1" parent="1">
                    <mxGeometry x="42" y="670" width="279" height="100" as="geometry"/>
                </mxCell>
                <mxCell id="36" value="Add 10 points&#10;Update points on scoreboard&#10;Give bee random position&#10;Restart animation&#10;" style="align=left;strokeColor=none;fillColor=none;spacingLeft=4;fontSize=12;verticalAlign=top;resizable=0;rotatable=0;part=1;rounded=0;" vertex="1" parent="35">
                    <mxGeometry y="30" width="279" height="70" as="geometry"/>
                </mxCell>
                <mxCell id="38" value="" style="rhombus;" vertex="1" parent="1">
                    <mxGeometry x="566" y="860" width="37" height="40" as="geometry"/>
                </mxCell>
                <mxCell id="39" style="edgeStyle=none;html=1;exitX=1.007;exitY=0.41;exitDx=0;exitDy=0;exitPerimeter=0;" edge="1" parent="1" source="34">
                    <mxGeometry relative="1" as="geometry">
                        <mxPoint x="610" y="880" as="targetPoint"/>
                        <Array as="points">
                            <mxPoint x="750" y="741"/>
                            <mxPoint x="750" y="880"/>
                        </Array>
                    </mxGeometry>
                </mxCell>
                <mxCell id="41" value="[no lives left]" style="text;html=1;resizable=0;autosize=1;align=center;verticalAlign=middle;points=[];fillColor=none;strokeColor=none;rounded=0;" vertex="1" parent="1">
                    <mxGeometry x="544.5" y="910" width="80" height="20" as="geometry"/>
                </mxCell>
                <mxCell id="42" value="gameOver" style="swimlane;childLayout=stackLayout;horizontal=1;startSize=30;horizontalStack=0;rounded=1;fontSize=14;fontStyle=0;strokeWidth=2;resizeParent=0;resizeLast=1;shadow=0;dashed=0;align=center;" vertex="1" parent="1">
                    <mxGeometry x="270" y="840" width="260" height="110" as="geometry"/>
                </mxCell>
                <mxCell id="43" value="Test 2&#10;" style="align=left;strokeColor=none;fillColor=none;spacingLeft=4;fontSize=12;verticalAlign=top;resizable=0;rotatable=0;part=1;rounded=0;" vertex="1" parent="42">
                    <mxGeometry y="30" width="260" height="80" as="geometry"/>
                </mxCell>
                <mxCell id="45" value="" style="shape=collate;whiteSpace=wrap;html=1;" vertex="1" parent="1">
                    <mxGeometry x="-80" y="490" width="40" height="40" as="geometry"/>
                </mxCell>
            </root>
        </mxGraphModel>
    </diagram>
</mxfile>